<?xml version="1.0" encoding="UTF-8" standalone="no"?>
<svg xmlns="http://www.w3.org/2000/svg" xmlns:xlink="http://www.w3.org/1999/xlink" contentStyleType="text/css" height="529px" preserveAspectRatio="none" style="width:717px;height:529px;background:#FFFFFF;" version="1.1" viewBox="0 0 717 529" width="717px" zoomAndPan="magnify"><defs><filter height="300%" id="fr2nlfvxer01t" width="300%" x="-1" y="-1"><feGaussianBlur result="blurOut" stdDeviation="2.0"/><feColorMatrix in="blurOut" result="blurOut2" type="matrix" values="0 0 0 0 0 0 0 0 0 0 0 0 0 0 0 0 0 0 .4 0"/><feOffset dx="4.0" dy="4.0" in="blurOut2" result="blurOut3"/><feBlend in="SourceGraphic" in2="blurOut3" mode="normal"/></filter></defs><g><!--MD5=[7058f338f099d236033fc5161613b206]
cluster Api--><g id="cluster_Api"><path d="M8.5,6 L34.5,6 A3.75,3.75 0 0 1 37,8.5 L44,28.2969 L707.5,28.2969 A2.5,2.5 0 0 1 710,30.7969 L710,519.5 A2.5,2.5 0 0 1 707.5,522 L8.5,522 A2.5,2.5 0 0 1 6,519.5 L6,8.5 A2.5,2.5 0 0 1 8.5,6 " filter="url(#fr2nlfvxer01t)" style="stroke:#000000;stroke-width:1.5;fill:none;"/><line style="stroke:#000000;stroke-width:1.5;fill:none;" x1="6" x2="44" y1="28.2969" y2="28.2969"/><text fill="#000000" font-family="sans-serif" font-size="14" font-weight="bold" lengthAdjust="spacing" textLength="25" x="10" y="20.9951">Api</text></g><!--MD5=[5c85d133e2c913f4b8608c8db253c015]
class Record--><g id="elem_Record"><rect codeLine="5" fill="#FFFFFF" filter="url(#fr2nlfvxer01t)" height="145.7813" id="Record" rx="2.5" ry="2.5" style="stroke:#181818;stroke-width:0.5;" width="225" x="22.5" y="106"/><ellipse cx="105.75" cy="122" fill="#ADD1B2" rx="11" ry="11" style="stroke:#181818;stroke-width:1.0;"/><path d="M108.7188,127.6406 Q108.1406,127.9375 107.5,128.0781 Q106.8594,128.2344 106.1563,128.2344 Q103.6563,128.2344 102.3281,126.5938 Q101.0156,124.9375 101.0156,121.8125 Q101.0156,118.6875 102.3281,117.0313 Q103.6563,115.375 106.1563,115.375 Q106.8594,115.375 107.5,115.5313 Q108.1563,115.6875 108.7188,115.9844 L108.7188,118.7031 Q108.0938,118.125 107.5,117.8594 Q106.9063,117.5781 106.2813,117.5781 Q104.9375,117.5781 104.25,118.6563 Q103.5625,119.7188 103.5625,121.8125 Q103.5625,123.9063 104.25,124.9844 Q104.9375,126.0469 106.2813,126.0469 Q106.9063,126.0469 107.5,125.7813 Q108.0938,125.5 108.7188,124.9219 L108.7188,127.6406 Z " fill="#000000"/><text fill="#000000" font-family="sans-serif" font-size="14" lengthAdjust="spacing" textLength="50" x="126.25" y="126.8467">Record</text><line style="stroke:#181818;stroke-width:0.5;" x1="23.5" x2="246.5" y1="138" y2="138"/><text fill="#000000" font-family="sans-serif" font-size="14" lengthAdjust="spacing" textLength="213" x="28.5" y="154.9951">resource_type : ResourceType</text><text fill="#000000" font-family="sans-serif" font-size="14" lengthAdjust="spacing" textLength="165" x="28.5" y="171.292">parent_shortname : str?</text><text fill="#000000" font-family="sans-serif" font-size="14" lengthAdjust="spacing" textLength="84" x="28.5" y="187.5889">uuid : UUID?</text><text fill="#000000" font-family="sans-serif" font-size="14" lengthAdjust="spacing" textLength="106" x="28.5" y="203.8857">shortname : str</text><text fill="#000000" font-family="sans-serif" font-size="14" lengthAdjust="spacing" textLength="88" x="28.5" y="220.1826">subpath : str</text><text fill="#000000" font-family="sans-serif" font-size="14" lengthAdjust="spacing" textLength="165" x="28.5" y="236.4795">attributes : dict[str, Any]</text><line style="stroke:#181818;stroke-width:0.5;" x1="23.5" x2="246.5" y1="243.7813" y2="243.7813"/></g><!--MD5=[c7528a5f82fc1713b2289d62c80fa427]
class QueryType--><g id="elem_QueryType"><rect codeLine="14" fill="#FFFFFF" filter="url(#fr2nlfvxer01t)" height="129.4844" id="QueryType" rx="2.5" ry="2.5" style="stroke:#181818;stroke-width:0.5;" width="107" x="282.5" y="114.5"/><ellipse cx="297.5" cy="130.5" fill="#EB937F" rx="11" ry="11" style="stroke:#181818;stroke-width:1.0;"/><path d="M301.6094,136.5 L293.8906,136.5 L293.8906,124.1094 L301.6094,124.1094 L301.6094,126.2656 L296.3438,126.2656 L296.3438,128.9375 L301.1094,128.9375 L301.1094,131.0938 L296.3438,131.0938 L296.3438,134.3438 L301.6094,134.3438 L301.6094,136.5 Z " fill="#000000"/><text fill="#000000" font-family="sans-serif" font-size="14" lengthAdjust="spacing" textLength="75" x="311.5" y="135.3467">QueryType</text><line style="stroke:#181818;stroke-width:0.5;" x1="283.5" x2="388.5" y1="146.5" y2="146.5"/><text fill="#000000" font-family="sans-serif" font-size="14" lengthAdjust="spacing" textLength="47" x="288.5" y="163.4951">search</text><text fill="#000000" font-family="sans-serif" font-size="14" lengthAdjust="spacing" textLength="57" x="288.5" y="179.792">subpath</text><text fill="#000000" font-family="sans-serif" font-size="14" lengthAdjust="spacing" textLength="47" x="288.5" y="196.0889">folders</text><text fill="#000000" font-family="sans-serif" font-size="14" lengthAdjust="spacing" textLength="47" x="288.5" y="212.3857">events</text><text fill="#000000" font-family="sans-serif" font-size="14" lengthAdjust="spacing" textLength="46" x="288.5" y="228.6826">history</text><line style="stroke:#181818;stroke-width:0.5;" x1="283.5" x2="388.5" y1="235.9844" y2="235.9844"/></g><!--MD5=[91221848cc6fc2b51471cfb300e81a0a]
class Query--><g id="elem_Query"><rect codeLine="22" fill="#FFFFFF" filter="url(#fr2nlfvxer01t)" height="276.1563" id="Query" rx="2.5" ry="2.5" style="stroke:#181818;stroke-width:0.5;" width="269" x="424.5" y="41"/><ellipse cx="534.25" cy="57" fill="#ADD1B2" rx="11" ry="11" style="stroke:#181818;stroke-width:1.0;"/><path d="M537.2188,62.6406 Q536.6406,62.9375 536,63.0781 Q535.3594,63.2344 534.6563,63.2344 Q532.1563,63.2344 530.8281,61.5938 Q529.5156,59.9375 529.5156,56.8125 Q529.5156,53.6875 530.8281,52.0313 Q532.1563,50.375 534.6563,50.375 Q535.3594,50.375 536,50.5313 Q536.6563,50.6875 537.2188,50.9844 L537.2188,53.7031 Q536.5938,53.125 536,52.8594 Q535.4063,52.5781 534.7813,52.5781 Q533.4375,52.5781 532.75,53.6563 Q532.0625,54.7188 532.0625,56.8125 Q532.0625,58.9063 532.75,59.9844 Q533.4375,61.0469 534.7813,61.0469 Q535.4063,61.0469 536,60.7813 Q536.5938,60.5 537.2188,59.9219 L537.2188,62.6406 Z " fill="#000000"/><text fill="#000000" font-family="sans-serif" font-size="14" lengthAdjust="spacing" textLength="41" x="554.75" y="61.8467">Query</text><line style="stroke:#181818;stroke-width:0.5;" x1="425.5" x2="692.5" y1="73" y2="73"/><text fill="#000000" font-family="sans-serif" font-size="14" lengthAdjust="spacing" textLength="118" x="430.5" y="89.9951">type : QueryType</text><text fill="#000000" font-family="sans-serif" font-size="14" lengthAdjust="spacing" textLength="88" x="430.5" y="106.292">subpath : str</text><text fill="#000000" font-family="sans-serif" font-size="14" lengthAdjust="spacing" textLength="190" x="430.5" y="122.5889">resource_uuids : list[UUID]?</text><text fill="#000000" font-family="sans-serif" font-size="14" lengthAdjust="spacing" textLength="257" x="430.5" y="138.8857">resource_types : list[ResourceType]?</text><text fill="#000000" font-family="sans-serif" font-size="14" lengthAdjust="spacing" textLength="219" x="430.5" y="155.1826">resource_shortnames : list[str]?</text><text fill="#000000" font-family="sans-serif" font-size="14" lengthAdjust="spacing" textLength="85" x="430.5" y="171.4795">search : str?</text><text fill="#000000" font-family="sans-serif" font-size="14" lengthAdjust="spacing" textLength="150" x="430.5" y="187.7764">from_date : datetime?</text><text fill="#000000" font-family="sans-serif" font-size="14" lengthAdjust="spacing" textLength="133" x="430.5" y="204.0732">to_date : datetime?</text><text fill="#000000" font-family="sans-serif" font-size="14" lengthAdjust="spacing" textLength="164" x="430.5" y="220.3701">exclude_fields : list[str]?</text><text fill="#000000" font-family="sans-serif" font-size="14" lengthAdjust="spacing" textLength="160" x="430.5" y="236.667">include_fields : list[str]?</text><text fill="#000000" font-family="sans-serif" font-size="14" lengthAdjust="spacing" textLength="88" x="430.5" y="252.9639">sort_by : str?</text><text fill="#000000" font-family="sans-serif" font-size="14" lengthAdjust="spacing" textLength="64" x="430.5" y="269.2607">limit : int?</text><text fill="#000000" font-family="sans-serif" font-size="14" lengthAdjust="spacing" textLength="76" x="430.5" y="285.5576">offset : int?</text><text fill="#000000" font-family="sans-serif" font-size="14" lengthAdjust="spacing" textLength="97" x="430.5" y="301.8545">tags : list[str]?</text><line style="stroke:#181818;stroke-width:0.5;" x1="425.5" x2="692.5" y1="309.1563" y2="309.1563"/></g><!--MD5=[62ba8ad8b61caf20139235a169a8c31d]
class Response--><g id="elem_Response"><rect codeLine="39" fill="#FFFFFF" filter="url(#fr2nlfvxer01t)" height="129.4844" id="Response" rx="2.5" ry="2.5" style="stroke:#181818;stroke-width:0.5;" width="194" x="38" y="377"/><ellipse cx="95.25" cy="393" fill="#ADD1B2" rx="11" ry="11" style="stroke:#181818;stroke-width:1.0;"/><path d="M98.2188,398.6406 Q97.6406,398.9375 97,399.0781 Q96.3594,399.2344 95.6563,399.2344 Q93.1563,399.2344 91.8281,397.5938 Q90.5156,395.9375 90.5156,392.8125 Q90.5156,389.6875 91.8281,388.0313 Q93.1563,386.375 95.6563,386.375 Q96.3594,386.375 97,386.5313 Q97.6563,386.6875 98.2188,386.9844 L98.2188,389.7031 Q97.5938,389.125 97,388.8594 Q96.4063,388.5781 95.7813,388.5781 Q94.4375,388.5781 93.75,389.6563 Q93.0625,390.7188 93.0625,392.8125 Q93.0625,394.9063 93.75,395.9844 Q94.4375,397.0469 95.7813,397.0469 Q96.4063,397.0469 97,396.7813 Q97.5938,396.5 98.2188,395.9219 L98.2188,398.6406 Z " fill="#000000"/><text fill="#000000" font-family="sans-serif" font-size="14" lengthAdjust="spacing" textLength="71" x="115.75" y="397.8467">Response</text><line style="stroke:#181818;stroke-width:0.5;" x1="39" x2="231" y1="409" y2="409"/><text fill="#000000" font-family="sans-serif" font-size="14" lengthAdjust="spacing" textLength="100" x="44" y="425.9951">status : Status</text><text fill="#000000" font-family="sans-serif" font-size="14" lengthAdjust="spacing" textLength="86" x="44" y="442.292">error : Error?</text><text fill="#000000" font-family="sans-serif" font-size="14" lengthAdjust="spacing" textLength="116" x="44" y="458.5889">auth_token : str?</text><text fill="#000000" font-family="sans-serif" font-size="14" lengthAdjust="spacing" textLength="152" x="44" y="474.8857">records : list[Record]?</text><text fill="#000000" font-family="sans-serif" font-size="14" lengthAdjust="spacing" textLength="182" x="44" y="491.1826">supplement : list[Record]?</text><line style="stroke:#181818;stroke-width:0.5;" x1="39" x2="231" y1="498.4844" y2="498.4844"/></g><!--MD5=[8db60afef7a3447bbe27c5ed187fdac2]
class Exception--><g id="elem_Exception"><rect codeLine="47" fill="#FFFFFF" filter="url(#fr2nlfvxer01t)" height="80.5938" id="Exception" rx="2.5" ry="2.5" style="stroke:#181818;stroke-width:0.5;" width="127" x="267.5" y="401"/><ellipse cx="294.65" cy="417" fill="#ADD1B2" rx="11" ry="11" style="stroke:#181818;stroke-width:1.0;"/><path d="M297.6188,422.6406 Q297.0406,422.9375 296.4,423.0781 Q295.7594,423.2344 295.0563,423.2344 Q292.5563,423.2344 291.2281,421.5938 Q289.9156,419.9375 289.9156,416.8125 Q289.9156,413.6875 291.2281,412.0313 Q292.5563,410.375 295.0563,410.375 Q295.7594,410.375 296.4,410.5313 Q297.0563,410.6875 297.6188,410.9844 L297.6188,413.7031 Q296.9938,413.125 296.4,412.8594 Q295.8063,412.5781 295.1813,412.5781 Q293.8375,412.5781 293.15,413.6563 Q292.4625,414.7188 292.4625,416.8125 Q292.4625,418.9063 293.15,419.9844 Q293.8375,421.0469 295.1813,421.0469 Q295.8063,421.0469 296.4,420.7813 Q296.9938,420.5 297.6188,419.9219 L297.6188,422.6406 Z " fill="#000000"/><text fill="#000000" font-family="sans-serif" font-size="14" lengthAdjust="spacing" textLength="68" x="311.35" y="421.8467">Exception</text><line style="stroke:#181818;stroke-width:0.5;" x1="268.5" x2="393.5" y1="433" y2="433"/><text fill="#000000" font-family="sans-serif" font-size="14" lengthAdjust="spacing" textLength="115" x="273.5" y="449.9951">status_code : int</text><text fill="#000000" font-family="sans-serif" font-size="14" lengthAdjust="spacing" textLength="79" x="273.5" y="466.292">error : Error</text><line style="stroke:#181818;stroke-width:0.5;" x1="268.5" x2="393.5" y1="473.5938" y2="473.5938"/></g><!--MD5=[e3d83ec5fd90ea9f3f2bfe265cb53458]
class Status--><g id="elem_Status"><rect codeLine="52" fill="#FFFFFF" filter="url(#fr2nlfvxer01t)" height="80.5938" id="Status" rx="2.5" ry="2.5" style="stroke:#181818;stroke-width:0.5;" width="76" x="430" y="401"/><ellipse cx="445" cy="417" fill="#EB937F" rx="11" ry="11" style="stroke:#181818;stroke-width:1.0;"/><path d="M449.1094,423 L441.3906,423 L441.3906,410.6094 L449.1094,410.6094 L449.1094,412.7656 L443.8438,412.7656 L443.8438,415.4375 L448.6094,415.4375 L448.6094,417.5938 L443.8438,417.5938 L443.8438,420.8438 L449.1094,420.8438 L449.1094,423 Z " fill="#000000"/><text fill="#000000" font-family="sans-serif" font-size="14" lengthAdjust="spacing" textLength="44" x="459" y="421.8467">Status</text><line style="stroke:#181818;stroke-width:0.5;" x1="431" x2="505" y1="433" y2="433"/><text fill="#000000" font-family="sans-serif" font-size="14" lengthAdjust="spacing" textLength="58" x="436" y="449.9951">success</text><text fill="#000000" font-family="sans-serif" font-size="14" lengthAdjust="spacing" textLength="36" x="436" y="466.292">failed</text><line style="stroke:#181818;stroke-width:0.5;" x1="431" x2="505" y1="473.5938" y2="473.5938"/></g><!--MD5=[b18a821262c5fb6c8a535effd9f13939]
link Record to QueryType--></g></svg>